<svg xmlns="http://www.w3.org/2000/svg" width="44" height="44" viewBox="0 0 44 44"><rect width="44" height="44" rx="8" fill="#EC1C24"/><g transform="translate(9 9) scale(1.083)" fill="#ffffff"><path d="M11.298 8.5c0 1.66-1.23 2.795-2.795 2.795H6.66V5.705h1.843c1.565 0 2.795 1.135 2.795 2.795zM24 3.5v17c0 1.375-1.125 2.5-2.5 2.5h-19C1.125 23 0 21.875 0 20.5v-17C0 2.125 1.125 1 2.5 1h19C22.875 1 24 2.125 24 3.5zM8.632 13.19c2.9 0 4.86-1.94 4.86-4.69 0-2.75-1.96-4.69-4.86-4.69H4.5v13.38h2.16v-4h1.972z"/></g></svg>