<svg xmlns="http://www.w3.org/2000/svg" width="44" height="44" viewBox="0 0 44 44"><rect width="44" height="44" rx="8" fill="#00719A"/><g transform="translate(9 9) scale(1.083)" fill="#ffffff"><path d="M12 2a10 10 0 100 20 10 10 0 000-20zm6.93 6h-2.95a15.7 15.7 0 00-1.38-3.56A8.03 8.03 0 0118.93 8zM12 4.04c.83 1.2 1.48 2.53 1.91 3.96h-3.82c.43-1.43 1.08-2.76 1.91-3.96zM4.26 14a7.96 7.96 0 010-4h3.38a16.6 16.6 0 000 4H4.26zm.81 2h2.95c.32 1.25.78 2.45 1.38 3.56A7.99 7.99 0 015.07 16zm2.95-8H5.07a7.99 7.99 0 014.33-3.56A15.7 15.7 0 008.02 8zM12 19.96c-.83-1.2-1.48-2.53-1.91-3.96h3.82c-.43 1.43-1.08 2.76-1.91 3.96zM14.34 14H9.66a14.8 14.8 0 010-4h4.68a14.8 14.8 0 010 4zm.25 5.56c.6-1.11 1.06-2.31 1.38-3.56h2.95a8.03 8.03 0 01-4.33 3.56zM16.36 14a16.6 16.6 0 000-4h3.38a7.96 7.96 0 010 4h-3.38z"/></g></svg>